<svg xmlns="http://www.w3.org/2000/svg"  viewBox="0 0 512 512" width="512px" height="512px"><path fill="#00acea" d="M208.99,193.5l70.6-70.6A276.447,276.447,0,0,1,435.96,44.71l36.68-5.24L467.4,76.15a276.505,276.505,0,0,1-78.19,156.38l-71.38,71.38-93.89,93.88-25.68,25.68-12.13-12.13-85.27-85.27L88.64,313.85l25.68-25.68Zm122.12,42.81a39.046,39.046,0,1,0-55.22,0,39.068,39.068,0,0,0,55.21,0Z"/><path fill="#00efd1" d="M331.1,181.09a39.053,39.053,0,0,1,.01,55.22h-.01a39.043,39.043,0,1,1,0-55.22Z"/><path fill="#00efd1" d="M318.31,304.39c23.96,66.18,7.97,108.24-35.78,151.98l-58.59-58.58,93.89-93.88Z"/><path fill="#00efd1" d="M208.99,193.5l-94.67,94.67-58.5-58.5C100.36,185.14,142.06,167.99,208.99,193.5Z"/><polygon fill="#00efd1" points="84.91 371.93 69.96 356.98 100.8 326.13 100.86 326.07 186.13 411.34 186.07 411.4 155.22 442.24 140.6 427.62 84.91 371.93"/><path fill="#fedb41" d="M140.6,427.62l-.5.5c-2.62,3.57-16.79,18.29-19.85,21.48-25.18,25.18-65.78,25.99-75.52,19.49l-.82-.81-1.21-1.22c-6.5-9.74-5.28-49.93,19.89-75.11,3.32-3.31,17.72-16.94,22.32-20.02Z"/><path fill="#083863" d="M471.791,33.531l-36.68,5.24a284.2,284.2,0,0,0-159.763,79.886l-67.879,67.879c-31.993-11.606-59.847-13.9-85.044-7C99,185.943,76.484,200.526,51.578,225.427a6,6,0,0,0,0,8.486l54.257,54.257L84.4,309.607a6,6,0,0,0,0,8.486l7.978,7.978L65.717,352.738a6,6,0,0,0,0,8.485l10.216,10.215c-6.63,5.708-15.572,14.26-17.587,16.27-11.815,11.819-20.154,28.335-23.48,46.506-2.786,15.215-1.67,29.415,2.842,36.177a6.1,6.1,0,0,0,.731.895l2.075,2.073a6.006,6.006,0,0,0,.884.722c4.2,2.8,11.671,4.412,20.756,4.412,18.858,0,44.639-6.951,62.337-24.65.03-.03.06-.06.088-.09l.533-.555c7.279-7.583,12.467-13.1,15.792-16.787l10.073,10.072a6,6,0,0,0,8.484,0l26.667-26.658,7.888,7.888a6,6,0,0,0,8.485,0l21.438-21.438,54.348,54.338a6,6,0,0,0,8.484,0c24.273-24.267,38.52-46.6,44.836-70.271,6.706-25.136,4.516-53-6.646-85.082l68.491-68.488A284.273,284.273,0,0,0,473.34,77l5.239-36.68a6,6,0,0,0-6.788-6.788ZM64.345,229.709c21.871-21.06,40.934-33.043,61.248-38.6,21.66-5.926,44.883-4.381,72.445,4.86L114.32,279.685Zm52.111,215.179-.491.512c-22.525,22.481-59.262,23.574-67.5,18.947l-1.024-1.027c-4.536-8.132-3.162-44.567,19.384-67.121,3.024-3.014,12.008-11.476,17.61-16.259l47.974,47.975C129.816,430.806,125.082,435.9,116.456,444.888Zm38.765-11.132L78.444,356.979l22.416-22.423,76.784,76.784Zm164.793-46.508c-5.386,20.188-17.36,39.554-37.528,60.593L232.427,397.79l83.057-83.054C324.346,342.379,325.786,365.611,320.014,387.248ZM461.461,75.3a272.2,272.2,0,0,1-76.494,152.986L219.7,393.546l0,0,0,0L198.26,414.985,97.125,313.85l21.437-21.437h0l93.961-93.96a5.967,5.967,0,0,0,1.493-1.493l69.816-69.816A272.132,272.132,0,0,1,436.809,50.65l28.759-4.109Z"/><path fill="#083863" d="M303.5,163.652a45.048,45.048,0,0,0-31.848,76.9l0,0a45.129,45.129,0,0,0,63.466.221c.082-.072.161-.148.239-.226a45.053,45.053,0,0,0-31.859-76.9Zm23.563,68.224c-.068.061-.133.124-.2.188a32.013,32.013,0,1,1,.2-.188Z"/></svg>