<svg id="b3610dfe-b8fa-4701-9393-2c36a069038b" data-name="Layer 1" xmlns="http://www.w3.org/2000/svg" width="500"
    height="500" viewBox="0 0 500 500">

    <path
        d="M666.15327,612.38417h-419a7.5082,7.5082,0,0,1-7.5-7.5v-457a7.5082,7.5082,0,0,1,7.5-7.5h419a7.5082,7.5082,0,0,1,7.5,7.5v457A7.5082,7.5082,0,0,1,666.15327,612.38417Zm-419-469a4.50493,4.50493,0,0,0-4.5,4.5v457a4.50492,4.50492,0,0,0,4.5,4.5h419a4.50491,4.50491,0,0,0,4.5-4.5v-457a4.50492,4.50492,0,0,0-4.5-4.5Z"
        transform="translate(-212.22752 -112.60382)" fill="#e6e6e6" />
    <circle cx="121.38798" cy="188.2833" r="9.84302" fill="#e6e6e6" />
    <circle cx="162.40057" cy="188.2833" r="9.84302" fill="#e6e6e6" />
    <circle cx="203.41316" cy="188.2833" r="9.84302" fill="#6c63ff" />
    <circle cx="244.42575" cy="188.2833" r="9.84302" fill="#6c63ff" />
    <circle cx="285.43835" cy="188.2833" r="9.84302" fill="#6c63ff" />
    <circle cx="326.45094" cy="188.2833" r="9.84302" fill="#e6e6e6" />
    <circle cx="367.46353" cy="188.2833" r="9.84302" fill="#e6e6e6" />
    <circle cx="121.38798" cy="219.45287" r="9.84302" fill="#e6e6e6" />
    <circle cx="162.40057" cy="219.45287" r="9.84302" fill="#e6e6e6" />
    <circle cx="203.41316" cy="219.45287" r="9.84302" fill="#e6e6e6" />
    <circle cx="244.42575" cy="219.45287" r="9.84302" fill="#e6e6e6" />
    <circle cx="285.43835" cy="219.45287" r="9.84302" fill="#e6e6e6" />
    <circle cx="326.45094" cy="219.45287" r="9.84302" fill="#e6e6e6" />
    <circle cx="367.46353" cy="219.45287" r="9.84302" fill="#e6e6e6" />
    <circle cx="121.38798" cy="250.62243" r="9.84302" fill="#6c63ff" />
    <circle cx="162.40057" cy="250.62243" r="9.84302" fill="#6c63ff" />
    <circle cx="203.41316" cy="250.62243" r="9.84302" fill="#6c63ff" />
    <circle cx="244.42575" cy="250.62243" r="9.84302" fill="#e6e6e6" />
    <circle cx="285.43835" cy="250.62243" r="9.84302" fill="#e6e6e6" />
    <circle cx="326.45094" cy="250.62243" r="9.84302" fill="#e6e6e6" />
    <circle cx="367.46353" cy="250.62243" r="9.84302" fill="#e6e6e6" />
    <circle cx="121.38798" cy="281.792" r="9.84302" fill="#e6e6e6" />
    <circle cx="162.40057" cy="281.792" r="9.84302" fill="#e6e6e6" />
    <circle cx="121.38798" cy="312.96157" r="9.84302" fill="#e6e6e6" />
    <circle cx="162.40057" cy="312.96157" r="9.84302" fill="#e6e6e6" />
    <circle cx="203.41316" cy="312.96157" r="9.84302" fill="#e6e6e6" />
    <circle cx="203.41316" cy="281.792" r="9.84302" fill="#e6e6e6" />
    <circle cx="244.42575" cy="281.792" r="9.84302" fill="#6c63ff" />
    <circle cx="285.43835" cy="281.792" r="9.84302" fill="#6c63ff" />
    <circle cx="326.45094" cy="281.792" r="9.84302" fill="#6c63ff" />
    <circle cx="367.46353" cy="281.792" r="9.84302" fill="#e6e6e6" />
    <path id="a332a05d-d774-4fd2-8531-ab97682a63e9" data-name="Path 40"
        d="M382.14194,213.88252a5.94683,5.94683,0,0,0,0,11.89205H531.22766a5.94683,5.94683,0,1,0,.19525-11.89205q-.09762-.00167-.19525,0Z"
        transform="translate(-212.22752 -112.60382)" fill="#3f3d56" />
    <path
        d="M565.03665,212.22687a1.17,1.17,0,0,0,0,1.65472l5.02282,5.02287H557.67366a1.17006,1.17006,0,0,0,0,2.34012h12.38581l-5.02282,5.02287a1.17,1.17,0,1,0,1.65467,1.65472l7.0203-7.02029a1.1701,1.1701,0,0,0,0-1.65472l-7.0203-7.02029A1.17,1.17,0,0,0,565.03665,212.22687Z"
        transform="translate(-212.22752 -112.60382)" fill="#e6e6e6" />
    <path
        d="M348.2699,212.22687a1.17,1.17,0,0,1,0,1.65472l-5.02282,5.02287h12.38581a1.17006,1.17006,0,1,1,0,2.34012H343.24708l5.02282,5.02287a1.17,1.17,0,0,1-1.65468,1.65472l-7.02029-7.02029a1.1701,1.1701,0,0,1,0-1.65472l7.02029-7.02029A1.17,1.17,0,0,1,348.2699,212.22687Z"
        transform="translate(-212.22752 -112.60382)" fill="#e6e6e6" />
    <path d="M373.80784,498.23108a21.32655,21.32655,0,1,0,0,42.65309H539.49871a21.32655,21.32655,0,1,0,0-42.65309Z"
        transform="translate(-212.22752 -112.60382)" fill="#e6e6e6" />
    <path d="M246.5,181.14878a34.27248,34.27248,0,1,1,34.27248-34.27248A34.31124,34.31124,0,0,1,246.5,181.14878Z"
        transform="translate(-212.22752 -112.60382)" fill="#6c63ff" />
    <path
        d="M260.023,143.49559H249.88081V133.35326a3.38081,3.38081,0,1,0-6.76162,0v10.14233H232.97686a3.38076,3.38076,0,0,0,0,6.76152h10.14233v10.14232a3.38081,3.38081,0,0,0,6.76162,0V150.25711H260.023a3.38076,3.38076,0,1,0,0-6.76152Z"
        transform="translate(-212.22752 -112.60382)" fill="#fff" /></svg>